<?xml version="1.0" standalone="no"?>
<!DOCTYPE svg PUBLIC "-//W3C//DTD SVG 20010904//EN"
 "http://www.w3.org/TR/2001/REC-SVG-20010904/DTD/svg10.dtd">
<svg version="1.0" xmlns="http://www.w3.org/2000/svg"
 width="2000.000000pt" height="2000.000000pt" viewBox="0 0 2000.000000 2000.000000"
 preserveAspectRatio="xMidYMid meet">
<metadata>
Created by potrace 1.11, written by Peter Selinger 2001-2013
</metadata>
<g transform="translate(0.000000,2000.000000) scale(0.100000,-0.100000)"
fill="#000000" stroke="none">
<path d="M5514 19069 c-223 -51 -389 -212 -448 -434 -14 -54 -16 -665 -16
-6515 0 -6449 0 -6455 20 -6530 23 -85 32 -105 76 -175 71 -112 179 -194 305
-231 71 -21 83 -23 148 -25 188 -4 365 80 477 226 23 31 87 152 89 170 1 6 5
28 10 50 4 22 9 51 11 65 1 14 2 926 3 2028 1 1101 4 2002 9 2002 4 0 23 -24
42 -53 40 -59 37 -55 90 -124 22 -29 40 -55 40 -58 0 -4 13 -22 83 -116 7 -8
17 -23 22 -31 6 -9 52 -74 102 -145 51 -70 98 -136 105 -147 7 -10 18 -24 23
-30 10 -11 38 -50 65 -92 8 -13 78 -111 155 -219 77 -108 146 -203 152 -213 7
-9 31 -40 53 -69 22 -29 40 -55 40 -59 0 -5 17 -28 60 -81 6 -7 10 -16 10 -22
0 -5 4 -11 8 -13 4 -1 56 -70 114 -153 59 -82 111 -155 115 -160 4 -6 24 -33
43 -60 19 -28 38 -54 43 -60 15 -19 762 -1066 772 -1083 6 -9 12 -19 15 -22 6
-5 286 -396 348 -485 19 -27 43 -59 53 -71 11 -11 19 -23 19 -27 0 -4 15 -27
33 -51 17 -24 40 -54 49 -67 57 -80 218 -306 225 -314 4 -6 24 -33 43 -60 19
-28 40 -56 47 -63 7 -7 13 -18 13 -23 0 -5 8 -17 17 -27 10 -9 36 -43 58 -76
22 -32 50 -73 63 -91 l23 -33 2 -1948 2 -1949 27 -73 c74 -204 226 -350 429
-411 74 -23 219 -28 293 -11 22 5 44 7 48 4 4 -3 8 0 8 5 0 6 8 11 18 11 10 0
22 3 26 7 4 5 11 8 14 8 26 1 142 78 195 129 71 69 104 115 142 198 57 125 55
26 55 2127 0 1789 1 1937 17 1960 9 14 47 67 85 117 37 51 68 96 68 102 0 6 4
12 8 14 5 2 26 28 48 58 21 30 42 60 47 65 4 6 22 30 39 55 18 25 76 106 130
180 54 74 103 143 110 153 22 32 137 191 150 209 7 9 20 26 28 38 24 35 109
154 117 165 28 37 65 88 98 135 21 30 41 57 45 60 4 3 15 20 25 38 11 17 23
32 27 32 4 0 8 5 8 12 0 6 7 18 15 27 19 20 235 319 235 326 0 5 25 36 48 60
6 8 12 16 12 20 0 3 5 11 10 18 18 21 63 83 120 164 30 43 59 83 65 90 5 6 20
27 33 45 41 58 173 242 192 268 19 25 717 997 807 1122 26 38 54 76 61 85 7
10 78 108 157 218 80 110 152 208 160 218 8 9 12 17 9 17 -3 0 1 6 8 13 7 8
53 71 102 140 50 70 91 125 93 123 2 -1 3 -911 3 -2022 1 -2235 -4 -2092 67
-2234 47 -96 169 -219 264 -268 35 -18 71 -32 80 -32 9 0 19 -3 23 -8 4 -4 11
-7 14 -8 4 0 39 -4 77 -9 39 -5 72 -8 75 -8 3 1 32 4 65 8 32 3 66 10 75 15 8
4 19 8 23 8 12 0 71 24 86 36 7 5 19 11 26 12 25 4 151 122 191 179 35 50 70
135 87 210 15 64 17 622 17 6500 0 7021 4 6498 -57 6622 -84 173 -240 291
-433 329 -45 9 -263 9 -315 0 -22 -4 -58 -12 -80 -17 -22 -6 -44 -12 -50 -13
-19 -5 -70 -31 -83 -43 -7 -7 -18 -13 -24 -13 -13 0 -92 -63 -131 -105 -22
-24 -177 -246 -232 -332 -5 -8 -110 -166 -232 -350 -123 -184 -223 -338 -223
-343 0 -5 -3 -10 -8 -12 -4 -1 -56 -77 -116 -168 -59 -91 -116 -176 -127 -190
-11 -14 -25 -36 -31 -50 -7 -14 -16 -27 -19 -30 -12 -9 -119 -173 -119 -182 0
-4 -4 -8 -10 -8 -5 0 -10 -6 -10 -13 0 -8 -9 -22 -20 -32 -11 -10 -20 -21 -20
-25 0 -4 -43 -71 -95 -148 -52 -78 -95 -146 -95 -152 0 -5 -4 -10 -8 -10 -4 0
-16 -15 -27 -32 -10 -18 -23 -37 -27 -43 -5 -5 -77 -113 -160 -240 -83 -126
-155 -232 -158 -235 -4 -3 -10 -12 -13 -20 -11 -23 -452 -691 -472 -713 -6 -7
-26 -37 -45 -67 -19 -30 -38 -56 -42 -58 -5 -2 -8 -7 -8 -11 0 -3 -124 -193
-275 -421 -324 -488 -296 -447 -317 -475 -10 -13 -18 -28 -18 -33 0 -6 -3 -12
-7 -14 -10 -4 -53 -65 -53 -73 0 -4 -6 -13 -12 -20 -30 -33 -38 -45 -33 -45 4
0 -6 -17 -22 -38 -15 -20 -32 -44 -38 -53 -5 -9 -27 -42 -49 -75 -21 -32 -90
-137 -154 -233 -64 -97 -119 -178 -122 -181 -3 -3 -9 -13 -15 -22 -27 -47
-341 -517 -345 -517 -3 0 -23 28 -45 62 -22 34 -49 76 -60 93 -51 80 -164 250
-172 259 -7 8 -100 147 -138 206 -29 45 -56 86 -65 99 -21 30 -215 322 -225
338 -16 26 -49 76 -58 87 -4 6 -37 54 -72 109 -35 54 -71 108 -79 120 -44 61
-146 219 -146 226 0 5 -4 10 -8 12 -10 4 -72 96 -72 108 0 4 -4 10 -8 12 -7 3
-98 135 -112 163 -16 31 -374 561 -381 563 -5 2 -9 8 -9 13 0 8 -596 914 -627
954 -13 16 -147 219 -153 230 -7 14 -204 309 -210 315 -3 3 -25 37 -50 75 -25
39 -47 72 -51 75 -3 3 -8 10 -10 15 -8 20 -384 580 -391 583 -4 2 -8 8 -8 12
0 5 -130 205 -289 444 -336 503 -389 566 -535 631 -107 47 -151 55 -317 58
-86 1 -149 -3 -195 -14z m8267 -2902 l1 -737 -35 -42 c-27 -34 -134 -191 -242
-356 -5 -9 -68 -104 -140 -211 -71 -108 -132 -200 -135 -206 -8 -17 -445 -670
-451 -675 -3 -3 -8 -9 -10 -15 -8 -20 -103 -160 -111 -163 -4 -2 -8 -7 -8 -12
0 -5 -149 -233 -332 -507 -183 -274 -338 -509 -346 -523 -7 -13 -17 -27 -21
-30 -4 -3 -18 -23 -31 -45 -13 -22 -27 -42 -30 -45 -3 -3 -17 -23 -30 -45 -13
-22 -28 -44 -33 -50 -13 -15 -337 -507 -337 -511 0 -2 -7 -12 -14 -21 -28 -34
-306 -455 -306 -463 0 -5 -3 -10 -7 -12 -7 -3 -40 -51 -169 -248 -27 -41 -55
-81 -61 -88 -7 -7 -13 -17 -13 -22 0 -5 -6 -15 -13 -22 -7 -7 -28 -38 -47 -68
-19 -30 -37 -57 -40 -60 -12 -12 -60 -87 -60 -95 0 -4 -7 -15 -15 -24 -12 -12
-156 -228 -310 -463 -60 -91 -116 -175 -122 -183 -12 -15 -207 -308 -213 -320
-9 -18 -65 -100 -77 -112 -6 -7 -13 -18 -16 -25 -2 -7 -6 -11 -9 -8 -16 17
-268 402 -268 409 0 5 -4 11 -8 13 -10 4 -72 96 -72 108 0 4 -4 10 -8 12 -8 3
-323 473 -331 493 -2 6 -7 12 -11 15 -3 3 -17 23 -30 45 -13 22 -26 42 -29 45
-10 8 -71 100 -71 106 0 6 -40 63 -57 82 -7 7 -13 17 -13 22 0 5 -6 15 -14 22
-7 8 -21 27 -30 43 -9 17 -25 41 -35 55 -11 14 -59 86 -107 160 -49 74 -93
138 -99 142 -5 4 -6 8 -2 8 7 0 1 9 -29 43 -6 7 -13 17 -15 22 -4 10 -228 348
-731 1102 -147 222 -268 405 -268 408 0 6 -10 19 -36 48 -6 7 -19 26 -28 42
-9 17 -24 42 -34 56 -43 66 -607 913 -711 1067 -64 95 -125 188 -136 205 -11
18 -96 146 -190 286 -93 139 -176 265 -184 279 -8 15 -17 29 -20 32 -3 3 -41
57 -83 120 -42 63 -95 135 -118 160 l-40 45 0 724 c0 398 2 722 4 720 10 -9
156 -221 156 -225 0 -6 41 -64 58 -82 6 -7 12 -17 12 -21 0 -4 11 -21 25 -37
14 -16 25 -34 25 -41 0 -6 4 -13 8 -15 5 -1 69 -93 143 -203 74 -110 139 -206
146 -213 6 -6 15 -21 18 -32 3 -11 11 -20 16 -20 5 0 9 -6 9 -14 0 -8 4 -16 8
-18 4 -1 46 -59 92 -128 46 -69 87 -126 92 -128 4 -2 8 -8 8 -13 0 -5 36 -61
80 -125 44 -63 80 -119 80 -124 0 -4 4 -10 9 -12 4 -1 48 -64 97 -138 49 -74
94 -141 101 -147 6 -7 21 -29 34 -50 13 -21 26 -40 29 -43 3 -3 21 -30 40 -60
19 -30 38 -56 42 -58 5 -2 8 -10 8 -17 0 -7 4 -15 8 -17 5 -1 46 -59 92 -128
46 -69 87 -126 92 -128 4 -2 8 -9 8 -16 0 -7 8 -21 18 -32 9 -10 42 -57 74
-104 64 -96 259 -384 428 -633 63 -92 120 -175 125 -184 6 -9 18 -26 28 -37 9
-11 17 -26 17 -33 0 -7 5 -13 10 -13 6 0 15 -11 20 -24 5 -14 19 -36 31 -50
12 -14 27 -34 33 -45 6 -11 29 -46 51 -78 22 -32 79 -114 125 -183 46 -69 88
-126 92 -128 4 -2 8 -8 8 -13 0 -11 42 -72 53 -77 4 -2 7 -10 7 -17 0 -7 3
-15 8 -17 4 -1 40 -52 81 -113 164 -245 216 -320 223 -323 5 -2 8 -8 8 -13 0
-6 18 -34 40 -64 22 -30 40 -57 40 -60 0 -4 6 -12 13 -20 6 -7 66 -93 132
-191 146 -219 239 -317 348 -368 103 -48 163 -60 276 -53 105 6 156 22 241 75
54 34 169 142 183 172 4 8 54 83 112 165 57 83 157 229 221 325 65 96 120 177
123 180 4 3 37 52 76 110 38 58 72 107 75 110 13 12 70 102 70 110 0 6 4 10 8
10 5 0 15 12 23 28 8 15 22 36 32 46 9 11 17 25 17 32 0 7 4 14 9 16 5 2 37
45 71 96 33 52 65 99 71 105 22 26 169 249 169 257 0 4 7 10 15 14 8 3 15 12
15 19 0 8 9 22 20 32 11 10 20 22 20 27 0 8 9 20 38 53 6 7 12 16 12 19 0 4
12 24 28 45 33 47 39 57 102 151 27 41 54 80 58 86 5 5 22 30 38 55 16 24 33
49 37 54 4 6 75 109 157 230 82 121 153 225 157 230 4 6 39 57 78 115 38 58
72 107 75 110 4 3 9 12 13 20 4 8 35 56 70 105 35 50 107 155 162 235 195 287
263 387 325 480 35 52 67 97 70 100 3 3 55 79 115 170 61 91 113 167 116 170
3 3 37 52 74 110 38 58 72 107 75 110 3 3 24 34 47 70 23 36 49 72 56 80 8 8
22 30 31 48 9 17 21 32 27 32 6 0 8 4 5 9 -4 5 -3 11 1 13 5 1 31 37 58 78
107 160 157 231 161 227 2 -2 4 -335 5 -740z m-39 -4356 c-48 -57 -112 -144
-177 -240 -58 -85 -55 -81 -160 -230 -44 -62 -94 -134 -112 -160 -17 -25 -35
-50 -40 -56 -5 -5 -19 -27 -32 -48 -13 -21 -28 -43 -34 -50 -7 -7 -16 -20 -22
-29 -14 -21 -97 -141 -107 -153 -5 -5 -19 -26 -32 -45 -12 -19 -74 -108 -137
-197 -120 -171 -433 -617 -534 -763 -33 -48 -116 -167 -185 -264 -167 -239
-174 -249 -238 -341 -103 -149 -117 -169 -129 -185 -7 -8 -63 -88 -125 -177
-62 -89 -119 -170 -126 -180 -6 -10 -64 -92 -127 -183 -63 -91 -120 -173 -127
-182 -7 -9 -39 -54 -71 -100 -32 -46 -116 -166 -187 -268 -71 -102 -135 -193
-142 -203 -7 -11 -32 -45 -55 -78 -24 -32 -43 -63 -43 -68 0 -6 -6 -14 -14
-18 -7 -4 -19 -18 -25 -31 -7 -13 -19 -31 -27 -40 -8 -9 -38 -51 -66 -93 -29
-42 -82 -118 -118 -168 -36 -51 -72 -103 -80 -115 -30 -45 -55 -81 -60 -86 -3
-3 -19 -25 -35 -50 -32 -48 -43 -63 -62 -85 -7 -7 -13 -16 -13 -20 0 -3 -33
-52 -73 -108 -40 -56 -93 -131 -118 -167 -24 -36 -46 -67 -49 -70 -5 -5 -15
-20 -48 -72 -9 -16 -20 -28 -23 -28 -4 0 -50 62 -102 138 -52 75 -111 160
-130 187 -20 28 -65 93 -101 145 -73 107 -103 151 -325 470 -87 124 -174 250
-194 280 -21 30 -66 96 -100 145 -35 50 -79 113 -98 140 -19 28 -71 102 -114
165 -43 63 -81 117 -84 120 -3 3 -10 13 -16 22 -5 9 -50 75 -100 145 -49 70
-92 132 -94 137 -2 6 -8 15 -13 21 -40 49 -48 59 -48 65 0 4 -11 20 -25 36
-14 16 -25 33 -25 37 0 4 -11 20 -25 35 -14 15 -25 30 -25 35 0 4 -5 13 -11
20 -5 7 -73 102 -149 212 -76 110 -143 205 -149 212 -6 7 -11 16 -11 20 0 4
-9 19 -21 33 -11 14 -81 113 -155 220 -74 107 -141 203 -149 213 -8 9 -15 21
-15 25 0 5 -8 17 -17 28 -10 11 -36 46 -58 78 -22 33 -44 64 -50 70 -5 6 -16
23 -24 39 -8 15 -18 27 -23 27 -4 0 -8 5 -8 10 0 6 -5 16 -10 23 -6 7 -49 68
-97 137 -128 186 -185 268 -308 445 -62 88 -140 201 -174 250 -34 50 -98 142
-142 205 -44 63 -100 144 -125 180 -25 36 -81 117 -124 180 -44 63 -84 122
-90 130 -66 97 -166 232 -213 285 l-57 67 0 776 c0 738 1 775 18 752 13 -20
238 -350 294 -434 7 -10 25 -35 39 -55 33 -47 250 -366 269 -396 8 -13 71
-106 139 -207 69 -100 143 -210 165 -243 23 -33 44 -62 47 -65 4 -3 15 -19 25
-37 11 -17 35 -55 55 -85 20 -29 89 -129 153 -223 63 -93 119 -174 123 -180 4
-5 64 -93 133 -195 68 -102 151 -223 183 -270 32 -47 93 -137 135 -200 42 -63
83 -121 89 -128 7 -7 13 -17 13 -21 0 -4 8 -16 18 -27 9 -10 23 -31 31 -46 8
-15 22 -37 33 -47 10 -11 18 -23 18 -26 0 -6 39 -65 50 -75 3 -3 57 -81 119
-175 63 -93 121 -180 130 -191 9 -12 22 -30 28 -40 7 -11 40 -59 74 -109 33
-49 91 -135 127 -190 37 -55 69 -102 72 -105 5 -5 76 -109 95 -139 25 -39 50
-76 55 -81 3 -3 46 -66 95 -140 50 -74 92 -137 95 -140 14 -14 70 -102 70
-110 0 -6 4 -10 8 -10 5 0 17 -16 28 -35 10 -19 22 -35 26 -35 3 0 8 -6 10
-13 7 -28 268 -396 321 -454 89 -95 193 -154 316 -178 83 -17 217 -4 297 30
19 8 37 14 41 14 3 -1 9 3 12 8 3 4 25 21 47 36 86 58 129 112 345 432 52 77
96 142 99 145 3 3 32 46 66 95 33 50 103 153 156 230 52 77 133 196 179 265
46 69 86 127 89 130 3 3 23 32 45 65 158 233 210 311 215 315 3 3 10 13 15 22
6 10 34 52 63 93 28 42 52 78 52 81 0 3 11 17 25 32 14 15 25 30 25 34 0 4 46
74 103 155 56 82 120 176 142 208 22 33 43 62 48 63 4 2 7 8 7 12 0 5 18 35
40 67 22 32 46 66 53 77 6 10 23 35 38 55 14 20 78 115 144 211 65 96 122 177
127 178 4 2 8 8 8 14 0 6 16 33 35 59 19 27 35 51 35 54 0 3 7 13 15 22 8 10
91 131 184 268 94 138 173 255 178 260 4 6 64 93 132 195 69 102 128 187 133
188 4 2 8 9 8 15 0 6 7 19 17 29 9 10 21 27 27 38 6 10 63 95 125 187 63 92
141 206 173 253 31 47 61 90 65 95 5 6 56 80 113 165 57 85 118 174 134 198
l31 44 3 -798 2 -798 -38 -45z"/>
</g>
</svg>
