<?xml version="1.0" encoding="utf-8"?>
<!-- Generator: Adobe Illustrator 18.1.1, SVG Export Plug-In . SVG Version: 6.00 Build 0)  -->
<svg version="1.1" id="Layer_1" xmlns="http://www.w3.org/2000/svg" xmlns:xlink="http://www.w3.org/1999/xlink" x="0px" y="0px"
	 viewBox="0 0 395.7 287.7" enable-background="new 0 0 395.7 287.7" xml:space="preserve">
<rect x="0" y="0" width="395.7" height="287.7"/>
<rect x="0" y="0" fill="none" stroke="#000000" stroke-width="0.3" width="395.7" height="287.7"/>
<path fill="#FFFFFF" d="M230.6,172.3l1.6-4.3l-25.7-9.7c3.2-7.7,7.8-12.8,16-15.7c7.7-2.5,16.4-2.8,24.1,0.1
	c17.9,6.8,26.9,27.2,20.2,44.9c-6.5,17.2-27.4,26.9-44.9,20.2c-11.6-4.4-19.1-14-21.9-25.9l-4.8,1.5C198.8,196.6,207,207,220,212
	c20.6,7.8,43.7-2.4,51.5-23c7.5-19.8-3.1-43-23-50.5c-10.1-3.8-22-3.5-31.6,1.3c-9,4.5-13.3,11.9-16.6,21.1L230.6,172.3z"/>
<path fill="#FFFFFF" d="M196.7,116.9l-4.5,0.7l4.4,27.1c-8.3,1-15-0.3-21.6-6c-6-5.4-10.6-12.8-12-21c-3.1-18.9,10.1-36.9,28.8-40
	c18.2-3,37,10.3,40,28.8c2,12.3-2.6,23.5-11.5,31.9l3.8,3.4c9.6-9.7,14.6-22,12.3-35.7c-3.5-21.7-23.9-36.6-45.6-33.1
	c-20.9,3.4-35.7,24.2-32.3,45.2c1.7,10.7,7.9,20.8,16.9,26.7c8.4,5.5,17,5.6,26.5,3.8L196.7,116.9z"/>
<path fill="#FFFFFF" d="M165.6,173.9l2.9,3.5l21.3-17.4c5,6.7,7.2,13.2,5.6,21.7c-1.7,7.9-5.8,15.6-12.2,20.8
	c-14.8,12.1-37,9.7-49-4.9c-11.7-14.3-9.6-37.1,4.9-49c9.6-7.9,21.7-9.5,33.4-6l1.1-5c-13.2-3.4-26.3-1.6-37.1,7.2
	c-17,13.9-19.8,39-5.9,56.1c13.4,16.4,38.8,18.8,55.3,5.3c8.4-6.8,14-17.3,14.7-28c0.6-10.1-3.7-17.5-9.9-24.9L165.6,173.9z"/>
</svg>
