<?xml version="1.0" encoding="utf-8"?>
<!-- Generator: Adobe Illustrator 18.1.1, SVG Export Plug-In . SVG Version: 6.00 Build 0)  -->
<svg version="1.1" id="Layer_1" xmlns="http://www.w3.org/2000/svg" xmlns:xlink="http://www.w3.org/1999/xlink" x="0px" y="0px"
	 viewBox="0 0 395.7 287.7" enable-background="new 0 0 395.7 287.7" xml:space="preserve">
<rect x="0" y="0" fill="none" stroke="#000000" stroke-width="0.3" width="395.7" height="287.7"/>
<path d="M214.1,51.9l-33.2,32.6c-9.7,9.6-11.1,22.2,0.9,34.4c10.4,10.6,19.2,8.6,24.4,6.9l-8.3,8.5l9.5,9.6c2.7-2.8,8-8.4,9-9.4
	l40.2-39.5l-9.4-9.5l-28,27.5c-2.5,2.4-6.3,6.2-11.3,7c-6.5,1.2-12.4-1.6-16.9-6.2c-9.3-9.4-4.2-16.5,0.6-21.3l31.8-31.2L214.1,51.9
	z"/>
<path d="M105.8,127.6l32.6,33.2c9.6,9.7,22.2,11.1,34.4-0.9c10.6-10.4,8.6-19.2,6.9-24.4l8.5,8.3l9.6-9.5c-2.8-2.7-8.4-8-9.4-9
	L149,85.1l-9.5,9.4l27.5,28c2.4,2.5,6.2,6.3,7,11.3c1.2,6.5-1.6,12.4-6.2,16.9c-9.4,9.3-16.5,4.2-21.3-0.6l-31.2-31.8L105.8,127.6z"
	/>
<path d="M181.4,236l33.2-32.6c9.7-9.6,11.1-22.2-0.9-34.4c-10.4-10.6-19.2-8.6-24.4-6.9l8.3-8.5l-9.5-9.6c-2.7,2.8-8,8.4-9,9.4
	l-40.2,39.5l9.4,9.5l28-27.5c2.5-2.4,6.3-6.2,11.3-7c6.5-1.2,12.4,1.6,16.9,6.2c9.3,9.4,4.2,16.5-0.6,21.3l-31.8,31.2L181.4,236z"/>
<path d="M289.9,160.5l-32.6-33.2c-9.6-9.7-22.2-11.1-34.4,0.9c-10.6,10.4-8.6,19.2-6.9,24.4l-8.5-8.3l-9.6,9.5c2.8,2.7,8.4,8,9.4,9
	l39.5,40.2l9.5-9.4l-27.5-28c-2.4-2.5-6.2-6.3-7-11.3c-1.2-6.5,1.6-12.4,6.2-16.9c9.4-9.3,16.5-4.2,21.3,0.6l31.2,31.8L289.9,160.5z
	"/>
</svg>
