<svg xmlns="http://www.w3.org/2000/svg" viewBox="0 0 32.9 32.1"><path d="M16.4 0.2c-9 0-16.3 7.3-16.3 16.3 0 7.2 4.7 13.3 11.1 15.5 0.8 0.1 1.1-0.4 1.1-0.8 0-0.4 0-1.4 0-2.8 -4.5 1-5.5-2.2-5.5-2.2 -0.7-1.9-1.8-2.4-1.8-2.4 -1.5-1 0.1-1 0.1-1 1.6 0.1 2.5 1.7 2.5 1.7 1.5 2.5 3.8 1.8 4.7 1.4 0.1-1.1 0.6-1.8 1-2.2C9.8 23.2 6 21.8 6 15.6c0-1.8 0.6-3.2 1.7-4.4C7.5 10.8 7 9.2 7.9 6.9c0 0 1.4-0.4 4.5 1.7C13.6 8.2 15 8 16.4 8c1.4 0 2.8 0.2 4.1 0.5C23.6 6.5 25 6.9 25 6.9c0.9 2.2 0.3 3.9 0.2 4.3 1 1.1 1.7 2.6 1.7 4.4 0 6.3-3.8 7.6-7.4 8 0.6 0.5 1.1 1.5 1.1 3 0 2.2 0 3.9 0 4.5 0 0.4 0.3 0.9 1.1 0.8 6.5-2.2 11.1-8.3 11.1-15.5C32.7 7.4 25.4 0.2 16.4 0.2z"/></svg>