<?xml version="1.0" encoding="utf-8"?>
<!-- Generator: Adobe Illustrator 18.1.1, SVG Export Plug-In . SVG Version: 6.00 Build 0)  -->
<svg version="1.1" id="Layer_1" xmlns="http://www.w3.org/2000/svg" xmlns:xlink="http://www.w3.org/1999/xlink" x="0px" y="0px"
	 viewBox="0 0 395.7 287.7" enable-background="new 0 0 395.7 287.7" xml:space="preserve">
<rect x="0" y="0" width="395.7" height="287.7"/>
<polyline fill="none" stroke="#000000" stroke-width="0.3" points="0.1,0.6 0.1,288.3 395.8,288.3 "/>
<path fill="#FFFFFF" d="M244.2,120.4c-5.1-3.4-11.8-5.2-20-5.5v-1c6.7-1,11.5-2.2,14.5-3.7c8.5-4.3,12.7-10.9,12.7-19.9
	c0-6.5-2.5-12.2-7.5-17.1c-5-4.9-12.2-7.3-21.7-7.3c-8.3,0-14.7,1.8-19.4,5.5c-4.6,3.6-7,8.2-7,13.5c0,3.3,1,5.9,3.1,7.9
	c2,2,4.8,3,8.2,3c5.3,0,7.9-2.5,7.9-7.6c0-3.9-3.3-6.6-9.9-8.2c-1.4-0.3-2.1-0.9-2.1-1.8c0-2.3,1.5-4.3,4.6-6.1
	c3-1.7,6.6-2.6,10.7-2.6c5.6,0,10,1.9,13.3,5.7c3.3,3.8,4.9,8.9,4.9,15.3c0,6.5-1.9,11.8-5.7,15.9c-3.8,4.1-9.2,6.7-16.2,7.7
	c-2.4,0.4-3.6,0.9-3.6,1.6c0,0.9,0.6,1.3,1.9,1.3h1h3.3c15.2,0,22.7,8.5,22.7,25.4c0,8.4-2.4,15.2-7.1,20.4
	c-4.7,5.2-10.9,7.8-18.5,7.8c-3.1,0-5.9-0.5-8.5-1.6c-2.6-1.1-3.9-2.2-3.9-3.5c0-0.8,0.9-1.6,2.8-2.4c4.7-2,7-4.8,7-8.3
	c0-2.3-0.8-4.2-2.5-5.7c-1.7-1.5-3.8-2.3-6.4-2.3c-3.3,0-5.9,0.9-7.9,2.8c-1.9,1.8-2.9,4.3-2.9,7.4c0,3.6,1.4,6.8,4.2,9.6
	c4.4,4.4,11.3,6.6,20.6,6.6c11.5,0,20.9-3.2,28.3-9.7c6.7-5.9,10-13,10-21.2C255.4,132.6,251.7,125.4,244.2,120.4"/>
<path fill="#FFFFFF" d="M154,120.1c-0.4,6.1,1.3,12.8,5.2,20.1l-0.9,0.5c-4.2-5.3-7.7-8.9-10.5-10.7c-8-5.2-15.8-5.6-23.6-1.1
	c-5.6,3.2-9.3,8.2-11,15c-1.7,6.8-0.2,14.2,4.5,22.5c4.1,7.2,8.9,11.9,14.4,14c5.5,2.2,10.5,1.9,15.2-0.7c2.9-1.6,4.6-3.9,5.3-6.6
	c0.7-2.8,0.2-5.6-1.5-8.6c-2.6-4.6-6.2-5.6-10.6-3.1c-3.4,1.9-4.1,6.2-2.2,12.7c0.4,1.4,0.3,2.3-0.5,2.7c-2,1.1-4.5,0.8-7.5-0.9
	c-3-1.8-5.6-4.4-7.6-8c-2.8-4.8-3.4-9.6-1.7-14.4c1.7-4.8,5.3-8.7,10.8-11.9c5.6-3.2,11.1-4.2,16.6-3c5.5,1.2,10.4,4.6,14.7,10.2
	c1.5,1.9,2.6,2.6,3.2,2.3c0.8-0.4,0.8-1.2,0.2-2.4l-0.5-0.9c-0.3-0.6-0.9-1.6-1.6-2.9c-7.6-13.1-4-23.9,10.6-32.4
	c7.3-4.2,14.4-5.5,21.2-4c6.9,1.5,12.2,5.5,16,12.1c1.5,2.7,2.5,5.4,2.9,8.2c0.4,2.8,0,4.5-1.1,5.1c-0.7,0.4-1.9,0-3.5-1.3
	c-4.1-3.1-7.6-3.7-10.7-1.9c-2,1.2-3.2,2.8-3.7,5.1c-0.5,2.2,0,4.5,1.3,6.7c1.6,2.9,3.8,4.7,6.3,5.4c2.6,0.8,5.2,0.4,7.9-1.2
	c3.1-1.8,5.2-4.6,6.2-8.4c1.6-6,0.1-13.1-4.6-21.2c-5.7-9.9-13.3-16.5-22.6-19.6c-8.4-2.8-16.2-2.2-23.4,1.9
	C159,104.3,154.6,111.1,154,120.1"/>
<path fill="#FFFFFF" d="M198.4,198.6c5.5-2.7,10.4-7.6,14.8-14.6l0.9,0.5c-2.5,6.3-3.8,11.1-4,14.4c-0.5,9.5,3.1,16.5,10.9,21
	c5.6,3.2,11.8,3.9,18.5,2c6.7-1.9,12.5-6.9,17.2-15.1c4.1-7.2,5.8-13.7,5-19.5c-0.8-5.8-3.6-10.1-8.2-12.8c-2.9-1.6-5.7-2.1-8.4-1.3
	c-2.8,0.8-5,2.6-6.7,5.6c-2.6,4.6-1.8,8.1,2.6,10.7c3.4,1.9,7.4,0.5,12.1-4.4c1-1.1,1.8-1.4,2.6-0.9c2,1.1,3,3.5,3,7
	c0,3.5-1,7-3.1,10.6c-2.8,4.8-6.7,7.7-11.6,8.7c-5,0.9-10.2-0.2-15.7-3.4c-5.6-3.2-9.2-7.5-10.9-12.9c-1.7-5.3-1.2-11.3,1.4-17.8
	c0.9-2.3,1-3.6,0.4-3.9c-0.8-0.4-1.5-0.1-2.1,1l-0.5,0.9c-0.3,0.6-0.9,1.6-1.6,2.9c-7.6,13.1-18.7,15.5-33.3,7
	c-7.3-4.2-12-9.7-14.1-16.4c-2.1-6.7-1.3-13.3,2.5-19.9c1.5-2.7,3.4-4.9,5.6-6.6c2.2-1.7,3.9-2.3,5-1.6c0.7,0.4,0.9,1.6,0.7,3.7
	c-0.6,5.1,0.6,8.5,3.7,10.2c2,1.2,4.1,1.4,6.2,0.7c2.2-0.7,3.9-2.2,5.2-4.4c1.6-2.9,2.2-5.6,1.5-8.2c-0.6-2.6-2.3-4.7-5-6.2
	c-3.1-1.8-6.6-2.2-10.4-1.2c-6,1.6-11.3,6.5-16,14.6c-5.7,9.9-7.6,19.7-5.7,29.3c1.8,8.7,6.2,15.2,13.4,19.3
	C182.2,202.2,190.3,202.6,198.4,198.6"/>
</svg>
