<?xml version="1.0" encoding="utf-8"?>
<!-- Generator: Adobe Illustrator 18.1.1, SVG Export Plug-In . SVG Version: 6.00 Build 0)  -->
<svg version="1.1" id="Layer_1" xmlns="http://www.w3.org/2000/svg" xmlns:xlink="http://www.w3.org/1999/xlink" x="0px" y="0px"
	 viewBox="0 0 395.7 287.7" enable-background="new 0 0 395.7 287.7" xml:space="preserve">
<rect x="0" y="0" width="395.7" height="287.7"/>
<rect x="0" y="0" fill="none" stroke="#000000" stroke-width="0.3" width="395.7" height="287.7"/>
<path fill="#FFFFFF" d="M204.4,157.8v4h0.3c2.1,0,3.6,0.4,4.7,1.1c1,0.7,1.5,1.9,1.5,3.6c0,0.5-0.1,1.1-0.2,1.8
	c-0.1,0.7-0.3,1.4-0.6,2.2l-6.3,18.4c-0.8,2.3-1.5,4.4-2.1,6.4c-0.6,2-1.1,3.7-1.4,5.1H200c-0.1-0.8-0.4-1.8-0.7-2.9
	c-0.3-1.1-0.7-2.3-1.1-3.5c-0.4-1.2-0.9-2.5-1.3-3.8c-0.5-1.3-0.9-2.5-1.4-3.5l-6.9-16.8c-0.3-0.7-0.5-1.3-0.6-1.9
	c-0.1-0.5-0.2-1.1-0.2-1.6c0-1.6,0.5-2.7,1.4-3.5c0.9-0.7,2.4-1.1,4.3-1.1h0.3v-4h-22.7v4h0.3c0.9,0,1.7,0.1,2.4,0.2
	c0.7,0.2,1.2,0.4,1.8,0.8c0.5,0.4,1,0.9,1.4,1.5c0.4,0.6,0.8,1.4,1.2,2.4l17.5,41.3c-0.8,2.6-1.7,5.1-2.8,7.4
	c-1.1,2.3-2.5,4.2-4.2,5.9c-1.7,1.7-3.7,3-6,3.9c-2.3,1-5.1,1.4-8.3,1.4v4.5h0.8c2.8,0,5.3-0.1,7.4-0.4c2.1-0.2,4-0.7,5.6-1.3
	c1.6-0.6,3.1-1.5,4.4-2.6c1.3-1.1,2.5-2.4,3.5-4.1c1.1-1.6,2.1-3.6,3.1-5.9c1-2.3,2-5,3.1-8l14.3-39.7c0.6-1.5,1.1-2.7,1.5-3.7
	c0.5-1,1-1.7,1.5-2.3c0.5-0.6,1.1-0.9,1.8-1.1c0.7-0.2,1.5-0.3,2.4-0.3h0.3v-4H204.4z"/>
<path fill="#FFFFFF" d="M191.1,129.9v-4h-0.3c-2.1,0-3.6-0.4-4.7-1.1c-1-0.7-1.5-1.9-1.5-3.6c0-0.5,0.1-1.1,0.2-1.8
	c0.1-0.7,0.3-1.4,0.6-2.2l6.3-18.4c0.8-2.3,1.5-4.4,2.1-6.4c0.6-2,1.1-3.7,1.4-5h0.3c0.1,0.8,0.4,1.8,0.7,2.9
	c0.3,1.1,0.7,2.3,1.1,3.5c0.4,1.2,0.9,2.5,1.3,3.8c0.5,1.3,0.9,2.5,1.4,3.5l6.9,16.8c0.3,0.7,0.5,1.3,0.6,1.9
	c0.1,0.5,0.2,1.1,0.2,1.6c0,1.6-0.5,2.7-1.4,3.5c-0.9,0.7-2.4,1.1-4.3,1.1h-0.3v4h22.7v-4h-0.3c-0.9,0-1.7-0.1-2.4-0.2
	c-0.7-0.2-1.2-0.4-1.8-0.8c-0.5-0.4-1-0.9-1.4-1.5c-0.4-0.6-0.8-1.4-1.2-2.4l-17.5-41.3c0.8-2.6,1.7-5.1,2.8-7.4
	c1.1-2.3,2.5-4.2,4.2-5.9c1.7-1.7,3.7-3,6-3.9s5.1-1.4,8.3-1.4v-4.5h-0.8c-2.8,0-5.3,0.1-7.4,0.4c-2.1,0.2-4,0.7-5.6,1.3
	c-1.6,0.6-3.1,1.5-4.4,2.6c-1.3,1.1-2.5,2.4-3.5,4.1c-1.1,1.6-2.1,3.6-3.1,5.9c-1,2.3-2,5-3.1,8l-14.3,39.7
	c-0.6,1.5-1.1,2.7-1.5,3.7c-0.5,1-1,1.7-1.5,2.3c-0.5,0.6-1.1,0.9-1.8,1.1c-0.7,0.2-1.5,0.3-2.4,0.3h-0.3v4H191.1z"/>
<path fill="#FFFFFF" d="M183.8,150.1h-4v0.3c0,2.1-0.4,3.6-1.1,4.7s-1.9,1.5-3.6,1.5c-0.5,0-1.1-0.1-1.8-0.2
	c-0.7-0.1-1.4-0.3-2.2-0.6l-18.4-6.3c-2.3-0.8-4.4-1.5-6.4-2.1c-2-0.6-3.7-1.1-5.1-1.4v-0.3c0.8-0.1,1.8-0.4,2.9-0.7
	c1.1-0.3,2.3-0.7,3.5-1.1c1.2-0.4,2.5-0.9,3.8-1.3c1.3-0.5,2.5-0.9,3.5-1.4l16.8-6.9c0.7-0.3,1.3-0.5,1.9-0.6
	c0.5-0.1,1.1-0.2,1.6-0.2c1.6,0,2.7,0.5,3.5,1.4c0.7,0.9,1.1,2.4,1.1,4.3v0.3h4v-22.7h-4v0.3c0,0.9-0.1,1.7-0.2,2.4
	c-0.2,0.7-0.4,1.2-0.8,1.8c-0.4,0.5-0.9,1-1.5,1.4c-0.6,0.4-1.4,0.8-2.4,1.2l-41.3,17.5c-2.6-0.8-5.1-1.7-7.4-2.8
	c-2.3-1.1-4.2-2.5-5.9-4.2c-1.7-1.7-3-3.7-3.9-6s-1.4-5.1-1.4-8.3h-4.5v0.8c0,2.8,0.1,5.3,0.4,7.4c0.2,2.1,0.7,4,1.3,5.6
	c0.6,1.6,1.5,3.1,2.6,4.4c1.1,1.3,2.4,2.5,4.1,3.5c1.6,1.1,3.6,2.1,5.9,3.1c2.3,1,5,2,8,3.1l39.7,14.3c1.5,0.6,2.7,1.1,3.7,1.5
	c1,0.5,1.7,1,2.3,1.5c0.6,0.5,0.9,1.1,1.1,1.8c0.2,0.7,0.3,1.5,0.3,2.4v0.3h4V150.1z"/>
<path fill="#FFFFFF" d="M211.9,136.6h4v-0.3c0-2.1,0.4-3.7,1.1-4.7s1.9-1.5,3.6-1.5c0.5,0,1.1,0.1,1.8,0.2c0.7,0.1,1.4,0.3,2.2,0.6
	l18.4,6.3c2.3,0.8,4.4,1.5,6.4,2.1c2,0.6,3.7,1.1,5,1.4v0.3c-0.8,0.1-1.8,0.4-2.9,0.7c-1.1,0.3-2.3,0.7-3.5,1.1
	c-1.2,0.4-2.5,0.9-3.8,1.3c-1.3,0.5-2.5,0.9-3.5,1.4l-16.8,6.9c-0.7,0.3-1.3,0.5-1.9,0.6c-0.5,0.1-1.1,0.2-1.6,0.2
	c-1.6,0-2.7-0.5-3.5-1.4c-0.7-0.9-1.1-2.4-1.1-4.3v-0.3h-4V170h4v-0.3c0-0.9,0.1-1.7,0.2-2.4s0.4-1.2,0.8-1.8c0.4-0.5,0.9-1,1.5-1.4
	c0.6-0.4,1.4-0.8,2.4-1.2l41.3-17.5c2.6,0.8,5.1,1.7,7.4,2.8c2.3,1.1,4.2,2.5,5.9,4.2c1.7,1.7,3,3.7,3.9,6c1,2.3,1.4,5.1,1.4,8.3
	h4.5v-0.8c0-2.8-0.1-5.3-0.4-7.4c-0.2-2.1-0.7-4-1.3-5.6c-0.6-1.6-1.5-3.1-2.6-4.4c-1.1-1.3-2.4-2.5-4.1-3.5
	c-1.6-1.1-3.6-2.1-5.9-3.1c-2.3-1-5-2-8-3.1l-39.7-14.3c-1.5-0.6-2.7-1.1-3.7-1.5c-1-0.5-1.7-1-2.3-1.5c-0.6-0.5-0.9-1.1-1.1-1.8
	c-0.2-0.7-0.3-1.5-0.3-2.4V117h-4V136.6z"/>
<path fill="#FFFFFF" d="M191.3,157.7v4H191c-2.1,0-3.6,0.4-4.7,1.1s-1.5,1.9-1.5,3.6c0,0.5,0.1,1.1,0.2,1.8c0.1,0.7,0.3,1.4,0.6,2.2
	l6.3,18.4c0.8,2.3,1.5,4.4,2.1,6.4c0.6,2,1.1,3.7,1.4,5.1h0.3c0.1-0.8,0.4-1.8,0.7-2.9c0.3-1.1,0.7-2.3,1.1-3.5
	c0.4-1.2,0.9-2.5,1.3-3.8c0.5-1.3,0.9-2.5,1.4-3.5l6.9-16.8c0.3-0.7,0.5-1.3,0.6-1.9c0.1-0.5,0.2-1.1,0.2-1.6c0-1.6-0.5-2.7-1.4-3.5
	c-0.9-0.7-2.4-1.1-4.3-1.1h-0.3v-4h22.7v4h-0.3c-0.9,0-1.7,0.1-2.4,0.2c-0.7,0.2-1.2,0.4-1.8,0.8c-0.5,0.4-1,0.9-1.4,1.5
	c-0.4,0.6-0.8,1.4-1.2,2.4L200.1,208c0.8,2.6,1.7,5.1,2.8,7.4c1.1,2.3,2.5,4.2,4.2,5.9c1.7,1.7,3.7,3,6,3.9c2.3,1,5.1,1.4,8.3,1.4
	v4.5h-0.8c-2.8,0-5.3-0.1-7.4-0.4c-2.1-0.2-4-0.7-5.6-1.3c-1.6-0.6-3.1-1.5-4.4-2.6c-1.3-1.1-2.5-2.4-3.5-4.1
	c-1.1-1.6-2.1-3.6-3.1-5.9c-1-2.3-2-5-3.1-8l-14.3-39.7c-0.6-1.5-1.1-2.7-1.5-3.7c-0.5-1-1-1.7-1.5-2.3c-0.5-0.6-1.1-0.9-1.8-1.1
	c-0.7-0.2-1.5-0.3-2.4-0.3h-0.3v-4H191.3z"/>
<path fill="#FFFFFF" d="M204.6,129.8v-4h0.3c2.1,0,3.6-0.4,4.7-1.1c1-0.7,1.5-1.9,1.5-3.6c0-0.5-0.1-1.1-0.2-1.8
	c-0.1-0.7-0.3-1.4-0.6-2.2L204,98.8c-0.8-2.3-1.5-4.4-2.1-6.4c-0.6-2-1.1-3.7-1.4-5h-0.3c-0.1,0.8-0.4,1.8-0.7,2.9
	c-0.3,1.1-0.7,2.3-1.1,3.5c-0.4,1.2-0.9,2.5-1.3,3.8c-0.5,1.3-0.9,2.5-1.4,3.5l-6.9,16.8c-0.3,0.7-0.5,1.3-0.6,1.9
	c-0.1,0.5-0.2,1.1-0.2,1.6c0,1.6,0.5,2.7,1.4,3.5c0.9,0.7,2.4,1.1,4.3,1.1h0.3v4h-22.7v-4h0.3c0.9,0,1.7-0.1,2.4-0.2
	c0.7-0.2,1.2-0.4,1.8-0.8c0.5-0.4,1-0.9,1.4-1.5c0.4-0.6,0.8-1.4,1.2-2.4l17.5-41.3c-0.8-2.6-1.7-5.1-2.8-7.4
	c-1.1-2.3-2.5-4.2-4.2-5.9c-1.7-1.7-3.7-3-6-3.9s-5.1-1.4-8.3-1.4v-4.5h0.8c2.8,0,5.3,0.1,7.4,0.4c2.1,0.2,4,0.7,5.6,1.3
	c1.6,0.6,3.1,1.5,4.4,2.6c1.3,1.1,2.5,2.4,3.5,4.1c1.1,1.6,2.1,3.6,3.1,5.9c1,2.3,2,5,3.1,8l14.3,39.7c0.6,1.5,1.1,2.7,1.5,3.7
	c0.5,1,1,1.7,1.5,2.3c0.5,0.6,1.1,0.9,1.8,1.1c0.7,0.2,1.5,0.3,2.4,0.3h0.3v4H204.6z"/>
<path fill="#FFFFFF" d="M211.9,150h4v0.3c0,2.1,0.4,3.6,1.1,4.7s1.9,1.5,3.6,1.5c0.5,0,1.1-0.1,1.8-0.2c0.7-0.1,1.4-0.3,2.2-0.6
	l18.4-6.3c2.3-0.8,4.4-1.5,6.4-2.1c2-0.6,3.7-1.1,5-1.4v-0.3c-0.8-0.1-1.8-0.4-2.9-0.7c-1.1-0.3-2.3-0.7-3.5-1.1
	c-1.2-0.4-2.5-0.9-3.8-1.3c-1.3-0.5-2.5-0.9-3.5-1.4l-16.8-6.9c-0.7-0.3-1.3-0.5-1.9-0.6c-0.5-0.1-1.1-0.2-1.6-0.2
	c-1.6,0-2.7,0.5-3.5,1.4c-0.7,0.9-1.1,2.4-1.1,4.3v0.3h-4v-22.7h4v0.3c0,0.9,0.1,1.7,0.2,2.4c0.2,0.7,0.4,1.2,0.8,1.8
	c0.4,0.5,0.9,1,1.5,1.4c0.6,0.4,1.4,0.8,2.4,1.2l41.3,17.5c2.6-0.8,5.1-1.7,7.4-2.8c2.3-1.1,4.2-2.5,5.9-4.2c1.7-1.7,3-3.7,3.9-6
	s1.4-5.1,1.4-8.3h4.5v0.8c0,2.8-0.1,5.3-0.4,7.4c-0.2,2.1-0.7,4-1.3,5.6c-0.6,1.6-1.5,3.1-2.6,4.4c-1.1,1.3-2.4,2.5-4.1,3.5
	c-1.6,1.1-3.6,2.1-5.9,3.1c-2.3,1-5,2-8,3.1l-39.7,14.3c-1.5,0.6-2.7,1.1-3.7,1.5c-1,0.5-1.7,1-2.3,1.5c-0.6,0.5-0.9,1.1-1.1,1.8
	c-0.2,0.7-0.3,1.5-0.3,2.4v0.3h-4V150z"/>
<path fill="#FFFFFF" d="M183.8,136.6h-4v-0.3c0-2.1-0.4-3.6-1.1-4.7s-1.9-1.5-3.6-1.5c-0.5,0-1.1,0.1-1.8,0.2
	c-0.7,0.1-1.4,0.3-2.2,0.6l-18.4,6.3c-2.3,0.8-4.4,1.5-6.4,2.1c-2,0.6-3.7,1.1-5.1,1.4v0.3c0.8,0.1,1.8,0.4,2.9,0.7
	c1.1,0.3,2.3,0.7,3.5,1.1c1.2,0.4,2.5,0.9,3.8,1.3c1.3,0.5,2.5,0.9,3.5,1.4l16.8,6.9c0.7,0.3,1.3,0.5,1.9,0.6
	c0.5,0.1,1.1,0.2,1.6,0.2c1.6,0,2.7-0.5,3.5-1.4c0.7-0.9,1.1-2.4,1.1-4.3v-0.3h4v22.7h-4v-0.3c0-0.9-0.1-1.7-0.2-2.4
	c-0.2-0.7-0.4-1.2-0.8-1.8c-0.4-0.5-0.9-1-1.5-1.4c-0.6-0.4-1.4-0.8-2.4-1.2l-41.3-17.5c-2.6,0.8-5.1,1.7-7.4,2.8
	c-2.3,1.1-4.2,2.5-5.9,4.2c-1.7,1.7-3,3.7-3.9,6s-1.4,5.1-1.4,8.3h-4.5v-0.8c0-2.8,0.1-5.3,0.4-7.4c0.2-2.1,0.7-4,1.3-5.6
	c0.6-1.6,1.5-3.1,2.6-4.4c1.1-1.3,2.4-2.5,4.1-3.5c1.6-1.1,3.6-2.1,5.9-3.1c2.3-1,5-2,8-3.1l39.7-14.3c1.5-0.6,2.7-1.1,3.7-1.5
	c1-0.5,1.7-1,2.3-1.5c0.6-0.5,0.9-1.1,1.1-1.8c0.2-0.7,0.3-1.5,0.3-2.4v-0.3h4V136.6z"/>
</svg>
