<?xml version="1.0" encoding="utf-8"?>
<!-- Generator: Adobe Illustrator 18.1.1, SVG Export Plug-In . SVG Version: 6.00 Build 0)  -->
<svg version="1.1" id="Layer_1" xmlns="http://www.w3.org/2000/svg" xmlns:xlink="http://www.w3.org/1999/xlink" x="0px" y="0px"
	 viewBox="0 0 395.7 287.7" enable-background="new 0 0 395.7 287.7" xml:space="preserve">
<rect x="0" y="0" fill="none" stroke="#000000" stroke-width="0.3" width="395.7" height="287.7"/>
<path d="M259.4,76.2c-3.4-3.1-7.6-4.7-12.7-4.7c-9.3,0-16.5,5.4-21.6,16.3v-4.8c0-3.8-0.3-7.7-1-11.5l-1.9,0.7l-3.1,1.4
	c-7.2,3.4-13.7,5-19.6,5c0.3,0-0.7-0.1-3.1-0.4c-2.4-0.2-4.8-0.4-7.2-0.4h-1.7c-1.6,0-2.4,0.6-2.4,1.7c0,1.1,1,1.7,2.9,1.7
	c5.8,0.2,9.9,0.9,12.6,2.3c2.6,1.4,4,6.5,4,15.3v66.2c0,5.3-0.2,8.3-0.5,8.9c-1,1.3-4.2,1.9-9.6,1.9h-3.4c-2.1,0-3.1,0.5-3.1,1.4
	c0,1,1.3,1.4,3.8,1.4h7.9h10.1H228h10.3c2.1,0,3.1-0.6,3.1-1.7c0-1-0.9-1.6-2.6-1.9c-6.9-0.2-11-0.5-12.3-1c-1.4-0.5-2-1.7-2-3.6
	v-47.2c0-17.6,1.8-29.7,5.5-36.2c3.2-5.6,7-8.3,11.5-8.3c3.5,0,5.3,1.2,5.3,3.6c0,0.6-0.7,1.8-2.2,3.4c-1.4,1.6-2.2,3.5-2.2,5.8
	c0,2.6,1,4.7,2.9,6.4c1.9,1.7,4.3,2.5,7.2,2.5c3.5,0,6.4-1.2,8.6-3.6c2.2-2.4,3.4-5.4,3.4-9.1C264.5,83.2,262.8,79.4,259.4,76.2"/>
<path d="M136.3,211.3c3.4,3.1,7.6,4.7,12.7,4.7c9.3,0,16.5-5.4,21.6-16.3v4.8c0,3.8,0.3,7.7,1,11.5l1.9-0.7l3.1-1.4
	c7.2-3.4,13.7-5,19.6-5c-0.3,0,0.7,0.1,3.1,0.4c2.4,0.2,4.8,0.4,7.2,0.4h1.7c1.6,0,2.4-0.6,2.4-1.7c0-1.1-1-1.7-2.9-1.7
	c-5.8-0.2-9.9-0.9-12.6-2.3c-2.6-1.4-4-6.5-4-15.3v-66.2c0-5.3,0.2-8.3,0.5-8.9c1-1.3,4.2-1.9,9.6-1.9h3.4c2.1,0,3.1-0.5,3.1-1.4
	c0-1-1.3-1.4-3.8-1.4h-7.9h-10.1h-18.2h-10.3c-2.1,0-3.1,0.6-3.1,1.7c0,1,0.9,1.6,2.6,1.9c6.9,0.2,11,0.5,12.3,1
	c1.4,0.5,2,1.7,2,3.6V164c0,17.6-1.8,29.7-5.5,36.2c-3.2,5.6-7,8.3-11.5,8.3c-3.5,0-5.3-1.2-5.3-3.6c0-0.6,0.7-1.8,2.2-3.4
	c1.4-1.6,2.2-3.5,2.2-5.8c0-2.6-1-4.7-2.9-6.3c-1.9-1.7-4.3-2.5-7.2-2.5c-3.5,0-6.4,1.2-8.6,3.6c-2.2,2.4-3.4,5.4-3.4,9.1
	C131.2,204.3,132.9,208.2,136.3,211.3"/>
</svg>
